<svg width="40" height="40" viewBox="0 0 40 40" fill="none" xmlns="http://www.w3.org/2000/svg">
    <path d="M26.8828 18.25C24.625 18.25 24.3125 20.5 24.3125 20.5H29.1094C29.1094 20.5 29.1406 18.25 26.8828 18.25ZM16 20.5H11.75V24.4062H15.7891C16.3984 24.3906 17.5391 24.2188 17.5391 22.5078C17.5391 20.4766 16 20.5 16 20.5Z" fill="#304FFE"/>
    <path d="M20 2.5C10.3359 2.5 2.5 10.3359 2.5 20C2.5 29.6641 10.3359 37.5 20 37.5C29.6641 37.5 37.5 29.6641 37.5 20C37.5 10.3359 29.6641 2.5 20 2.5ZM23.6875 13.25H29.7109V15.0469H23.6875V13.25ZM20.6406 22.6875C20.6406 27.1406 16 27 16 27H8.40625V12.3906H16C18.3125 12.3906 20.1328 13.6641 20.1328 16.2812C20.1328 18.8984 17.9062 19.0625 17.9062 19.0625C20.8438 19.0625 20.6406 22.6875 20.6406 22.6875ZM31.9062 22.4453H24.3359C24.3359 25.1562 26.9062 24.9844 26.9062 24.9844C29.3359 24.9844 29.25 23.4141 29.25 23.4141H31.8203C31.8203 27.5859 26.8203 27.2969 26.8203 27.2969C20.8281 27.2969 21.2109 21.7109 21.2109 21.7109C21.2109 21.7109 21.2031 16.1016 26.8203 16.1016C32.7344 16.1094 31.9062 22.4453 31.9062 22.4453Z" fill="#304FFE"/>
    <path d="M17.0313 16.5078C17.0313 14.9922 16 14.9922 16 14.9922H11.75V18.25H15.7344C16.4219 18.25 17.0313 18.0234 17.0313 16.5078Z" fill="#304FFE"/>
</svg>
