<svg width="16" height="11" viewBox="0 0 16 11" fill="none" xmlns="http://www.w3.org/2000/svg">
    <path d="M10.3844 5.63505C10.3844 6.23449 10.1463 6.80938 9.72242 7.23325C9.29855 7.65712 8.72366 7.89525 8.12422 7.89525C7.52477 7.89525 6.94988 7.65712 6.52601 7.23325C6.10214 6.80938 5.86401 6.23449 5.86401 5.63505C5.86401 5.03561 6.10214 4.46072 6.52601 4.03685C6.94988 3.61298 7.52477 3.37485 8.12422 3.37485C8.72366 3.37485 9.29855 3.61298 9.72242 4.03685C10.1463 4.46072 10.3844 5.03561 10.3844 5.63505Z" fill="#9796A1" fill-opacity="0.6"/>
    <path fill-rule="evenodd" clip-rule="evenodd" d="M0.891602 5.63501C0.891602 5.63501 3.60384 0.662561 8.12425 0.662561C12.6447 0.662561 15.3569 5.63501 15.3569 5.63501C15.3569 5.63501 12.6447 10.6075 8.12425 10.6075C3.60384 10.6075 0.891602 5.63501 0.891602 5.63501ZM8.12425 8.79929C8.96347 8.79929 9.76832 8.46591 10.3617 7.87249C10.9552 7.27907 11.2885 6.47423 11.2885 5.63501C11.2885 4.79579 10.9552 3.99094 10.3617 3.39752C9.76832 2.8041 8.96347 2.47072 8.12425 2.47072C7.28503 2.47072 6.48018 2.8041 5.88676 3.39752C5.29334 3.99094 4.95997 4.79579 4.95997 5.63501C4.95997 6.47423 5.29334 7.27907 5.88676 7.87249C6.48018 8.46591 7.28503 8.79929 8.12425 8.79929Z" fill="#9796A1" fill-opacity="0.6"/>
    <path fill-rule="evenodd" clip-rule="evenodd" d="M0.891602 5.63501C0.891602 5.63501 3.60384 0.662561 8.12425 0.662561C12.6447 0.662561 15.3569 5.63501 15.3569 5.63501C15.3569 5.63501 12.6447 10.6075 8.12425 10.6075C3.60384 10.6075 0.891602 5.63501 0.891602 5.63501ZM8.12425 8.79929C8.96347 8.79929 9.76832 8.46591 10.3617 7.87249C10.9552 7.27907 11.2885 6.47423 11.2885 5.63501C11.2885 4.79579 10.9552 3.99094 10.3617 3.39752C9.76832 2.8041 8.96347 2.47072 8.12425 2.47072C7.28503 2.47072 6.48018 2.8041 5.88676 3.39752C5.29334 3.99094 4.95997 4.79579 4.95997 5.63501C4.95997 6.47423 5.29334 7.27907 5.88676 7.87249C6.48018 8.46591 7.28503 8.79929 8.12425 8.79929Z" fill="#9796A1" fill-opacity="0.6"/>
</svg>
