<svg width="47" height="46" viewBox="0 0 47 46" fill="none" xmlns="http://www.w3.org/2000/svg">
    <circle cx="23.6606" cy="23.1482" r="22.6951" fill="#262626"/>
    <g clip-path="url(#clip0_1_1545)">
        <path d="M35.0615 20.6202L25.4187 20.6197C24.9928 20.6197 24.6477 20.9648 24.6477 21.3906V24.471C24.6477 24.8968 24.9928 25.242 25.4186 25.242H30.8489C30.2542 26.7851 29.1444 28.0774 27.7285 28.8986L30.0439 32.9068C33.7582 30.7587 35.9541 26.9897 35.9541 22.7704C35.9541 22.1697 35.9098 21.7402 35.8213 21.2566C35.7539 20.8892 35.435 20.6202 35.0615 20.6202Z" fill="#167EE6"/>
        <path d="M24.1331 29.8705C21.4756 29.8705 19.1557 28.4185 17.9097 26.2699L13.9016 28.5802C15.9413 32.1153 19.7623 34.4958 24.1331 34.4958C26.2772 34.4958 28.3004 33.9185 30.0433 32.9125V32.907L27.7278 28.8987C26.6687 29.513 25.4431 29.8705 24.1331 29.8705Z" fill="#12B347"/>
        <path d="M30.0447 32.9124V32.9069L27.7292 28.8986C26.6701 29.5128 25.4446 29.8704 24.1345 29.8704V34.4957C26.2787 34.4957 28.3019 33.9184 30.0447 32.9124Z" fill="#0F993E"/>
        <path d="M16.9396 22.6754C16.9396 21.3655 17.297 20.1401 17.9112 19.081L13.9031 16.7708C12.8915 18.5081 12.3142 20.5258 12.3142 22.6754C12.3142 24.8251 12.8915 26.8427 13.9031 28.5801L17.9112 26.2699C17.297 25.2108 16.9396 23.9853 16.9396 22.6754Z" fill="#FFD500"/>
        <path d="M24.1331 15.4804C25.866 15.4804 27.4578 16.0962 28.7011 17.1205C29.0078 17.3731 29.4536 17.3549 29.7346 17.0739L31.9172 14.8913C32.236 14.5725 32.2133 14.0507 31.8727 13.7553C29.7896 11.9481 27.0793 10.8551 24.1331 10.8551C19.7623 10.8551 15.9413 13.2356 13.9016 16.7708L17.9097 19.081C19.1557 16.9324 21.4756 15.4804 24.1331 15.4804Z" fill="#FE724C"/>
        <path d="M28.7025 17.1205C29.0093 17.3731 29.4551 17.3549 29.736 17.0739L31.9186 14.8913C32.2374 14.5725 32.2147 14.0507 31.8742 13.7553C29.7911 11.9481 27.0807 10.8551 24.1345 10.8551V15.4804C25.8674 15.4804 27.4592 16.0962 28.7025 17.1205Z" fill="#D93F21"/>
    </g>
    <defs>
        <clipPath id="clip0_1_1545">
            <rect width="23.6407" height="23.6407" fill="white" transform="translate(12.3135 10.8551)"/>
        </clipPath>
    </defs>
</svg>
